<svg width="20" height="21" viewBox="0 0 20 21" fill="none" xmlns="http://www.w3.org/2000/svg">
<path fill-rule="evenodd" clip-rule="evenodd" d="M6.9401 10.3708C6.81043 10.3482 6.69283 10.2802 6.60806 10.1787C6.5233 10.0773 6.47681 9.94889 6.47681 9.81624C6.47681 9.68359 6.5233 9.5552 6.60806 9.45374C6.69283 9.35227 6.81043 9.28426 6.9401 9.26169H13.0534C13.1831 9.28426 13.3007 9.35227 13.3854 9.45374C13.4702 9.5552 13.5167 9.68359 13.5167 9.81624C13.5167 9.94889 13.4702 10.0773 13.3854 10.1787C13.3007 10.2802 13.1831 10.3482 13.0534 10.3708H6.9401ZM17.0215 10.3544V11.0927C17.0215 11.1234 17.0107 11.1531 16.9911 11.1765C16.9714 11.2 16.9441 11.2156 16.9141 11.2207C16.8555 11.2207 16.7969 11.2387 16.7383 11.2518C16.6282 11.2731 16.5195 11.3011 16.4128 11.3355C16.2124 11.3984 16.0209 11.4872 15.8431 11.5997C15.7593 11.6524 15.6794 11.7111 15.6038 11.7752C15.53 11.8372 15.4609 11.9047 15.3971 11.977C15.3316 12.0499 15.2718 12.1278 15.2181 12.21C14.9969 12.5509 14.8834 12.9513 14.8926 13.3585C14.8925 13.4752 14.8985 13.5919 14.9105 13.708C14.9231 13.814 14.9421 13.9192 14.9674 14.023C14.992 14.1176 15.0236 14.2103 15.0618 14.3002C15.0975 14.3843 15.1406 14.465 15.1904 14.5414L15.2002 14.5562C15.3031 14.7092 15.4244 14.8486 15.5615 14.9713C15.6336 15.0382 15.7091 15.1011 15.7878 15.16C15.869 15.219 15.9532 15.2738 16.04 15.324C16.2174 15.4208 16.4209 15.539 16.6032 15.621L16.9141 15.7687L17.3763 15.9737C17.4544 16.0131 17.5195 16.0459 17.596 16.0886L17.6921 16.1526C17.7197 16.1723 17.7441 16.192 17.7653 16.21C17.7875 16.2297 17.8082 16.2511 17.8271 16.274L17.8727 16.3331C17.891 16.36 17.9068 16.3886 17.9199 16.4184C17.9305 16.4405 17.9393 16.4636 17.946 16.4873C17.9556 16.5157 17.9632 16.5447 17.9688 16.5742C17.9757 16.61 17.98 16.6462 17.9818 16.6825C17.9818 16.7219 17.9818 16.7613 17.9818 16.8007V16.8794C17.9753 16.9282 17.9655 16.9764 17.9525 17.0238C17.9384 17.0677 17.9198 17.11 17.8971 17.1501C17.871 17.1926 17.8386 17.2307 17.8011 17.2633L17.7458 17.3043C17.6991 17.3316 17.6486 17.3515 17.596 17.3634C17.5371 17.3798 17.4765 17.3891 17.4154 17.3913C17.3551 17.3913 17.3128 17.3913 17.2526 17.3798C17.1495 17.3629 17.0502 17.3274 16.9596 17.2748C16.9387 17.2613 16.9186 17.2465 16.8994 17.2305L16.8392 17.1764C16.8197 17.157 16.8017 17.1362 16.7855 17.114C16.7683 17.0915 16.7525 17.068 16.7383 17.0435C16.7236 17.0172 16.7074 16.9877 16.6943 16.9598C16.6813 16.9315 16.6699 16.9025 16.6602 16.8728C16.6482 16.8402 16.6385 16.8067 16.6309 16.7728C16.6217 16.7338 16.6146 16.6944 16.6097 16.6546C16.6097 16.6153 16.5999 16.571 16.5967 16.525C16.5967 16.4758 16.5967 16.4282 16.5967 16.3806C16.5966 16.3615 16.589 16.3432 16.5755 16.3298C16.5687 16.3229 16.5606 16.3174 16.5516 16.3137C16.5427 16.3101 16.5331 16.3083 16.5234 16.3084H14.6859C14.6669 16.3085 14.6488 16.3162 14.6354 16.3298C14.6286 16.3363 14.6232 16.3442 14.6196 16.353C14.6159 16.3617 14.6141 16.3711 14.6143 16.3806C14.6143 16.507 14.6143 16.6235 14.6289 16.7317C14.6436 16.84 14.6549 16.9483 14.6745 17.0599C14.6936 17.1577 14.7192 17.2542 14.751 17.3486C14.7795 17.4378 14.8138 17.5249 14.8535 17.6095L14.8633 17.6292C14.9023 17.7096 14.9463 17.7933 14.9935 17.8655C15.0408 17.9392 15.0918 18.0104 15.1465 18.0788C15.2002 18.1451 15.2578 18.2081 15.319 18.2674C15.3773 18.3261 15.4392 18.3809 15.5046 18.4315L15.5192 18.443C15.5852 18.492 15.6536 18.5374 15.7243 18.5792C15.7959 18.6235 15.8691 18.6628 15.9456 18.7006C16.0221 18.7383 16.097 18.7678 16.1768 18.799C16.2565 18.8302 16.3395 18.8532 16.416 18.8761C16.4925 18.8991 16.5446 18.9089 16.6081 18.9221C16.6715 18.9352 16.7415 18.95 16.8034 18.9598C16.8333 18.9645 16.8605 18.9798 16.8802 19.003C16.8999 19.0261 16.9108 19.0556 16.9108 19.0861V19.7916C16.9159 19.8587 16.9359 19.9238 16.9694 19.982C16.9824 20.0066 16.9694 20.0263 16.984 20.0263H17.8288C17.8385 20.0265 17.8481 20.0247 17.8571 20.0211C17.8661 20.0175 17.8742 20.012 17.8811 20.0051C17.8879 19.9982 17.8933 19.99 17.8969 19.9809C17.9005 19.9719 17.9022 19.9622 17.902 19.9524V19.0894C17.902 19.0591 17.9126 19.0298 17.932 19.0067C17.9513 18.9836 17.9782 18.9681 18.0078 18.9631L18.1152 18.945C18.225 18.9239 18.3337 18.8971 18.4408 18.8646C18.6397 18.8029 18.8308 18.7181 19.0104 18.612C19.0916 18.5635 19.1689 18.5087 19.2415 18.4479C19.3165 18.3867 19.3867 18.3198 19.4515 18.2477C19.5174 18.1751 19.5773 18.0972 19.6305 18.0148C19.6859 17.9335 19.7339 17.8472 19.7738 17.7572C19.8147 17.6657 19.849 17.5714 19.8763 17.475C19.9034 17.3737 19.9235 17.2706 19.9365 17.1665C19.9503 17.0577 19.9574 16.9481 19.9577 16.8384C19.958 16.7227 19.9515 16.6071 19.9382 16.4922C19.9252 16.3866 19.9056 16.2819 19.8796 16.1788C19.8544 16.0816 19.8211 15.9867 19.7803 15.895C19.7429 15.8103 19.6983 15.729 19.6468 15.6522C19.5971 15.5756 19.5427 15.5022 19.484 15.4323C19.422 15.3605 19.3557 15.2925 19.2855 15.2289C19.216 15.1653 19.1432 15.1056 19.0674 15.05C18.9893 14.9926 18.9046 14.9368 18.82 14.886H18.8086C18.7223 14.8351 18.6312 14.7826 18.5335 14.7219C18.4359 14.6612 18.3545 14.6235 18.2471 14.5693C18.1396 14.5152 18.0501 14.4692 17.9508 14.4217C17.7881 14.3495 17.6383 14.2789 17.4837 14.2018L17.3584 14.1329L17.2526 14.0705C17.1891 14.0263 17.1484 13.9984 17.0898 13.9491C17.0462 13.9092 17.0069 13.8646 16.9727 13.8162C16.9573 13.7959 16.9442 13.7739 16.9336 13.7506C16.9231 13.7282 16.9139 13.7052 16.9059 13.6817C16.8976 13.658 16.8905 13.6339 16.8848 13.6095C16.8793 13.5813 16.8755 13.5528 16.8734 13.5242V13.4356V13.3536C16.8798 13.301 16.8896 13.249 16.9027 13.1977L16.9287 13.1222C16.937 13.1 16.9474 13.0786 16.9596 13.0582C16.9715 13.0379 16.9851 13.0187 17.0003 13.0008C17.0309 12.9622 17.0672 12.9285 17.1077 12.9007C17.1266 12.8886 17.1461 12.8776 17.1663 12.8679L17.2363 12.845C17.2646 12.837 17.2934 12.8315 17.3226 12.8285C17.354 12.8269 17.3855 12.8269 17.417 12.8285C17.4585 12.8283 17.4999 12.8321 17.5407 12.84C17.5774 12.8469 17.6134 12.8574 17.6481 12.8712H17.6562C17.6917 12.8862 17.7255 12.9049 17.7572 12.927C17.7901 12.9488 17.8207 12.9741 17.8483 13.0025L17.8581 13.0123C17.8903 13.0466 17.9177 13.0853 17.9395 13.1272C17.96 13.1699 17.9769 13.2144 17.9899 13.26V13.2765C18.0072 13.3443 18.0191 13.4134 18.0257 13.4832C18.0257 13.5554 18.0371 13.6374 18.0387 13.726C18.0386 13.7433 18.0443 13.7601 18.055 13.7736C18.0684 13.7871 18.0865 13.7948 18.1055 13.7949H19.9316C19.9506 13.7948 19.9687 13.7871 19.9821 13.7736C19.989 13.7667 19.9944 13.7585 19.998 13.7495C20.0016 13.7405 20.0034 13.7308 20.0033 13.7211C20.0037 13.5966 19.9967 13.4722 19.9821 13.3486C19.9692 13.2321 19.9491 13.1165 19.9219 13.0025C19.8961 12.8952 19.863 12.79 19.8226 12.6874C19.784 12.5901 19.7383 12.4958 19.6859 12.4053L19.6745 12.3839C19.621 12.2928 19.5612 12.2056 19.4954 12.1231C19.4315 12.0411 19.3613 11.9643 19.2855 11.8934C19.2116 11.8052 19.1305 11.7234 19.043 11.6489C18.9557 11.5879 18.8643 11.5331 18.7695 11.4848C18.5752 11.3862 18.3697 11.3118 18.1576 11.2633H18.1217C18.0921 11.2583 18.0653 11.2428 18.0459 11.2197C18.0265 11.1966 18.0159 11.1673 18.0159 11.137V10.3659C18.0158 10.3486 18.0101 10.3319 17.9997 10.3183C17.9929 10.3114 17.9847 10.3059 17.9758 10.3023C17.9668 10.2986 17.9572 10.2968 17.9476 10.297H17.0898C17.0704 10.297 17.0517 10.3046 17.0378 10.3183C17.0243 10.3318 17.0167 10.35 17.0166 10.3692L17.0215 10.3544ZM12.5846 18.5201C12.731 18.5201 12.8713 18.5787 12.9748 18.683C13.0783 18.7873 13.1364 18.9288 13.1364 19.0763C13.1364 19.2238 13.0783 19.3653 12.9748 19.4696C12.8713 19.5739 12.731 19.6325 12.5846 19.6325H1.28418C0.943594 19.6325 0.616958 19.4961 0.376127 19.2533C0.135297 19.0106 0 18.6813 0 18.338L0 1.2945C0 0.95118 0.135297 0.621918 0.376127 0.379151C0.616958 0.136385 0.943594 0 1.28418 0L17.054 0C17.3946 0 17.7213 0.136385 17.9621 0.379151C18.2029 0.621918 18.3382 0.95118 18.3382 1.2945V7.4356C18.3382 7.58311 18.2801 7.72458 18.1766 7.82889C18.0731 7.9332 17.9328 7.9918 17.7865 7.9918C17.6401 7.9918 17.4998 7.9332 17.3963 7.82889C17.2928 7.72458 17.2347 7.58311 17.2347 7.4356V1.2945C17.2343 1.24637 17.215 1.20036 17.181 1.16653C17.1472 1.13257 17.1017 1.11316 17.054 1.11239H1.28418C1.23636 1.11328 1.19056 1.13199 1.1556 1.16489C1.12322 1.2003 1.10471 1.24636 1.10352 1.2945V18.3363C1.10352 18.3846 1.12255 18.431 1.15643 18.4651C1.19031 18.4993 1.23626 18.5185 1.28418 18.5185H12.5846V18.5201ZM6.9401 14.4512C6.81044 14.4256 6.69361 14.3555 6.60963 14.2526C6.52564 14.1498 6.47972 14.0208 6.47972 13.8876C6.47972 13.7544 6.52564 13.6254 6.60963 13.5226C6.69361 13.4198 6.81044 13.3496 6.9401 13.324H11.7464C11.8775 13.3478 11.9962 13.4172 12.0817 13.5203C12.1672 13.6233 12.214 13.7533 12.214 13.8876C12.214 14.0219 12.1672 14.1519 12.0817 14.255C11.9962 14.358 11.8775 14.4274 11.7464 14.4512H6.9401ZM6.9401 6.30025C6.80572 6.28733 6.68181 6.22152 6.59527 6.11708C6.50873 6.01264 6.46654 5.87801 6.47786 5.74241C6.46701 5.60726 6.50945 5.47324 6.59598 5.36943C6.68252 5.26561 6.80616 5.20037 6.9401 5.18786H13.0534C13.186 5.20238 13.3077 5.26842 13.3928 5.37195C13.4779 5.47549 13.5196 5.60838 13.5091 5.74241C13.521 5.87707 13.4798 6.01103 13.3946 6.11539C13.3093 6.21974 13.1868 6.28614 13.0534 6.30025H6.9401ZM4.28874 13.1255C4.4175 13.1255 4.54337 13.164 4.65044 13.2361C4.7575 13.3082 4.84095 13.4107 4.89022 13.5306C4.9395 13.6506 4.95239 13.7825 4.92727 13.9098C4.90215 14.0371 4.84014 14.1541 4.74909 14.2458C4.65804 14.3376 4.54204 14.4001 4.41575 14.4255C4.28946 14.4508 4.15856 14.4378 4.03959 14.3881C3.92063 14.3384 3.81895 14.2543 3.74742 14.1464C3.67588 14.0385 3.6377 13.9116 3.6377 13.7818C3.6377 13.6077 3.70629 13.4408 3.82838 13.3177C3.95047 13.1947 4.11607 13.1255 4.28874 13.1255ZM4.28874 9.10746C4.4175 9.10746 4.54337 9.14596 4.65044 9.21807C4.7575 9.29018 4.84095 9.39268 4.89022 9.5126C4.9395 9.63251 4.95239 9.76447 4.92727 9.89177C4.90215 10.0191 4.84014 10.136 4.74909 10.2278C4.65804 10.3196 4.54204 10.3821 4.41575 10.4074C4.28946 10.4327 4.15856 10.4197 4.03959 10.3701C3.92063 10.3204 3.81895 10.2363 3.74742 10.1283C3.67588 10.0204 3.6377 9.89354 3.6377 9.76374C3.6377 9.58969 3.70629 9.42276 3.82838 9.29968C3.95047 9.17661 4.11607 9.10746 4.28874 9.10746ZM4.28874 5.09106C4.4175 5.09106 4.54337 5.12955 4.65044 5.20166C4.7575 5.27377 4.84095 5.37627 4.89022 5.49619C4.9395 5.61611 4.95239 5.74806 4.92727 5.87537C4.90215 6.00267 4.84014 6.11961 4.74909 6.21139C4.65804 6.30317 4.54204 6.36568 4.41575 6.391C4.28946 6.41632 4.15856 6.40333 4.03959 6.35365C3.92063 6.30398 3.81895 6.21986 3.74742 6.11194C3.67588 6.00402 3.6377 5.87713 3.6377 5.74733C3.6377 5.57328 3.70629 5.40635 3.82838 5.28328C3.95047 5.1602 4.11607 5.09106 4.28874 5.09106Z" fill="white"/>
</svg>
