<svg width="23" height="24" viewBox="0 0 23 24" fill="none" xmlns="http://www.w3.org/2000/svg">
<g clip-path="url(#clip0_2143_1223)">
<path d="M11.5 0.5C14.6764 0.5 17.5514 1.78776 19.6309 3.86914C21.7122 5.95052 23 8.82552 23 12C23 15.1764 21.7122 18.0514 19.6309 20.1309C17.5495 22.2122 14.6745 23.5 11.5 23.5C8.32552 23.5 5.44865 22.2122 3.36914 20.1309C1.28776 18.0514 0 15.1764 0 12C0 8.82365 1.28776 5.94865 3.36914 3.86914C5.44865 1.78776 8.32365 0.5 11.5 0.5ZM8.70174 16.7898C9.82479 19.1313 13.2295 19.2137 14.3057 16.8029C14.0119 16.5053 13.7948 16.189 13.5795 15.8726C13.5439 15.8202 13.5084 15.7697 13.4728 15.7173C12.9543 16.1291 12.3236 16.3911 11.5019 16.3892C10.6165 16.3874 9.9502 16.0486 9.40365 15.5488C9.37183 15.5189 9.33813 15.4889 9.30632 15.4571C9.2277 15.6742 9.1285 15.9344 9.02181 16.1777C8.91886 16.4117 8.80843 16.6307 8.70174 16.7898ZM17.3436 20.683L17.5981 17.9727C16.6567 17.7893 15.6478 17.5909 14.6052 16.9901C13.8247 19.5899 9.63013 19.8988 8.44906 17.0575C7.51318 17.5291 6.56047 17.7987 5.47485 17.9653L5.84359 20.8047C7.47388 21.8547 9.41675 22.4649 11.5019 22.4649C13.6637 22.4649 15.674 21.8079 17.3436 20.683ZM3.09961 18.2423L3.14453 18.2161C4.26009 17.5946 7.16317 17.3888 8.36857 16.5483C8.45654 16.4154 8.552 16.2227 8.64372 16.013C8.78223 15.6967 8.90763 15.3523 8.98812 15.1165C8.65121 14.7196 8.36296 14.2723 8.08594 13.8306L7.17253 12.3781C6.83936 11.8802 6.66528 11.4254 6.65405 11.051C6.64844 10.8751 6.67839 10.716 6.7439 10.5756C6.81128 10.4277 6.9161 10.3061 7.05835 10.2106C7.12386 10.1657 7.19873 10.1283 7.27922 10.0983C7.21932 9.3103 7.19873 8.31828 7.23617 7.48722C7.25488 7.29069 7.29419 7.09229 7.34847 6.89575C7.58244 6.06283 8.16642 5.39087 8.89079 4.93042C9.28947 4.67586 9.72746 4.48494 10.1842 4.35579C10.4743 4.27344 9.93709 3.34692 10.2366 3.3151C11.6872 3.16536 14.0325 4.49056 15.0451 5.58553C15.5523 6.13395 15.8705 6.86206 15.9398 7.82414L15.8836 10.1938C16.1363 10.2705 16.2992 10.4315 16.3647 10.6917C16.4377 10.9799 16.359 11.3861 16.1139 11.9382C16.1101 11.9476 16.1045 11.9588 16.0989 11.9682L15.0582 13.6827C14.6764 14.3116 14.287 14.9443 13.7817 15.4421C13.8266 15.5077 13.8734 15.5732 13.9183 15.6405C14.1242 15.9419 14.332 16.2451 14.5977 16.5146C14.6071 16.524 14.6146 16.5334 14.6202 16.5427C15.8181 17.3888 18.7343 17.5946 19.8536 18.2179L19.8985 18.2441C21.1956 16.5015 21.9631 14.3416 21.9631 12.0019C21.9631 9.1119 20.7913 6.4952 18.8971 4.60286C17.0067 2.70679 14.39 1.53507 11.5 1.53507C8.61003 1.53507 5.99333 2.70679 4.10099 4.60099C2.20679 6.49333 1.03507 9.11003 1.03507 12C1.03507 14.3397 1.80249 16.4997 3.09961 18.2423ZM7.80705 10.5213C7.6049 10.5288 7.45142 10.5719 7.3466 10.6411C7.2867 10.6804 7.24365 10.7328 7.21558 10.7927C7.18376 10.8601 7.17065 10.9425 7.17253 11.0379C7.18001 11.3149 7.32601 11.6781 7.60677 12.0973L7.61051 12.1029L8.52393 13.5554C8.89079 14.1375 9.2745 14.7309 9.75179 15.167C10.2104 15.5863 10.7663 15.8708 11.5037 15.8726C12.3011 15.8745 12.8832 15.5788 13.3568 15.137C13.849 14.6766 14.2365 14.0458 14.6202 13.415L15.6497 11.7211C15.8406 11.2831 15.9117 10.9911 15.8668 10.8189C15.8406 10.716 15.7283 10.6673 15.5355 10.6561C15.4943 10.6542 15.4531 10.6542 15.4101 10.6542C15.3652 10.6561 15.3165 10.658 15.266 10.6636C15.2379 10.6654 15.2117 10.6636 15.1873 10.658C15.0956 10.6636 15.002 10.6561 14.9047 10.643L15.2566 9.08382C12.6436 9.49561 10.6877 7.55461 7.92497 8.69637L8.12337 10.5344C8.0092 10.54 7.90438 10.5363 7.80705 10.5213Z" fill="white"/>
</g>
<defs>
<clipPath id="clip0_2143_1223">
<rect width="23" height="23" fill="white" transform="translate(0 0.5)"/>
</clipPath>
</defs>
</svg>
